<?xml version="1.0" standalone="no"?>
<!DOCTYPE svg PUBLIC "-//W3C//DTD SVG 20010904//EN"
 "http://www.w3.org/TR/2001/REC-SVG-20010904/DTD/svg10.dtd">
<svg version="1.0" xmlns="http://www.w3.org/2000/svg"
 width="256.000000pt" height="256.000000pt" viewBox="0 0 256.000000 256.000000"
 preserveAspectRatio="xMidYMid meet">
<metadata>
Created by potrace 1.16, written by Peter Selinger 2001-2019
</metadata>
<g transform="translate(0.000000,256.000000) scale(0.100000,-0.100000)"
fill="#000000" stroke="none">
<path d="M1266 1747 c-15 -176 -38 -598 -34 -603 3 -3 59 -8 125 -11 l119 -6
25 30 c24 29 26 38 43 307 23 355 31 338 -165 349 l-107 7 -6 -73z m185 -41
c2 -2 -3 -109 -11 -238 l-15 -233 -42 -3 c-43 -3 -43 -3 -43 30 0 46 20 355
26 406 5 41 6 42 43 42 21 0 40 -2 42 -4z"/>
<path d="M1052 1803 c-32 -4 -33 -6 -28 -41 3 -20 17 -163 31 -317 14 -154 28
-290 30 -301 4 -19 10 -21 52 -16 27 2 49 6 51 7 1 1 -12 153 -30 338 -37 376
-25 340 -106 330z"/>
<path d="M717 1739 c-60 -15 -110 -29 -112 -31 -4 -3 162 -649 168 -654 6 -6
92 24 92 32 0 5 -11 56 -25 113 l-24 103 79 72 78 72 -32 130 c-18 71 -38 139
-46 150 -26 41 -60 43 -178 13z m119 -171 l21 -87 -33 -32 c-19 -18 -36 -31
-38 -28 -4 4 -56 201 -56 213 0 7 62 25 75 22 5 -1 19 -41 31 -88z"/>
<path d="M1729 1726 c-17 -17 -42 -96 -100 -307 -43 -156 -78 -289 -79 -295 0
-9 239 -80 244 -72 6 8 27 90 24 92 -2 2 -33 11 -70 20 -43 12 -68 23 -68 32
0 22 32 138 42 151 5 6 40 17 78 24 38 6 73 15 78 18 11 7 43 111 33 111 -3
-1 -35 -7 -71 -15 -101 -22 -95 -34 -54 112 l14 52 70 -20 c38 -10 72 -19 74
-19 5 0 28 92 24 95 -9 7 -169 45 -190 45 -14 0 -36 -11 -49 -24z"/>
<path d="M1963 1347 l-152 -302 46 -23 c25 -13 46 -22 48 -20 1 2 26 49 54
106 33 66 57 102 67 102 15 0 16 -15 10 -137 l-7 -138 49 -27 49 -28 7 77 c3
42 6 111 6 154 0 87 14 112 59 107 24 -3 31 6 88 117 66 126 73 156 47 193
-12 17 -199 122 -216 122 -2 0 -71 -136 -155 -303z m245 146 c15 -9 28 -18 30
-19 2 -1 -14 -36 -35 -78 l-37 -76 -48 0 c-26 0 -48 2 -48 5 0 16 92 185 100
185 6 0 23 -8 38 -17z"/>
<path d="M308 1585 c-72 -37 -98 -65 -97 -105 0 -14 39 -103 87 -198 l88 -173
63 87 64 88 48 -95 c26 -52 48 -97 48 -100 1 -5 -64 -39 -74 -39 -3 0 -15 20
-28 46 l-23 45 -34 -47 -33 -47 22 -42 c22 -41 55 -65 89 -65 9 1 53 20 97 43
71 37 81 46 89 77 8 33 1 51 -88 229 l-97 193 -60 -81 c-33 -44 -63 -81 -67
-81 -8 0 -86 151 -80 154 2 1 15 10 30 19 37 23 46 21 60 -8 6 -14 14 -25 18
-25 4 0 20 19 37 43 29 40 30 44 17 69 -30 58 -80 62 -176 13z"/>
</g>
</svg>
